<svg id="Layer_1" data-name="Layer 1" xmlns="http://www.w3.org/2000/svg" width="60" height="60" viewBox="0 0 60 60"><defs><style>.cls-1{fill:#f7cd67;}.cls-2{fill:#e56d7e;}.cls-3{fill:#63a8ec;}.cls-4{fill:#3e6182;}.cls-5{fill:#2dc498;}</style></defs><path class="cls-1" d="M30.1288,11.12,17.6655,23.2706,18.052,5.8712A17.34,17.34,0,0,1,30.1288,11.12Z"/><path class="cls-2" d="M30.0074,35.5426a17.3678,17.3678,0,0,1-6.74,4.2146,16.7591,16.7591,0,0,1-1.9287.53,17.0041,17.0041,0,0,1-2.7975.3681c-.2908.0147-.5816.0221-.876.0221A17.349,17.349,0,0,1,5.2831,35.5021L17.6655,23.2706,23.2677,28.84Z"/><path class="cls-3" d="M18.052,5.8712l-.3865,17.3994L5.2831,35.5021c-.2393-.243-.4712-.49-.6957-.7472a17.406,17.406,0,0,1,12.5259-28.88q.2762-.0111.5522-.0111C17.7943,5.8638,17.9231,5.8638,18.052,5.8712Z"/><path class="cls-4" d="M59.7376,50.9653v2.919H18.5415V40.6553a17.0041,17.0041,0,0,0,2.7975-.3681V50.9653Z"/><rect class="cls-1" x="43.4094" y="17.2782" width="6.8611" height="31.5633"/><rect class="cls-5" x="52.8765" y="28.4974" width="6.8611" height="20.3441"/><path class="cls-2" d="M40.5825,23.8411v25H33.7213V29.9992a17.2551,17.2551,0,0,0,1.3435-6.1581Z"/><path class="cls-5" d="M35.0722,23.2706c0,.1914-.0037.3791-.0074.57a17.2551,17.2551,0,0,1-1.3435,6.1581,16.55,16.55,0,0,1-.8061,1.6674,17.2081,17.2081,0,0,1-2.7864,3.7508c-.04.0405-.081.0847-.1214.1252l-6.74-6.7029-5.6022-5.5691L30.1288,11.12a17.5781,17.5781,0,0,1,1.7337,2.0723A17.347,17.347,0,0,1,35.0722,23.2706Z"/><path class="cls-3" d="M30.1288,35.4174V48.8415H23.2677V39.7572a17.3678,17.3678,0,0,0,6.74-4.2146C30.0478,35.5021,30.0883,35.4579,30.1288,35.4174Z"/></svg>