<svg xmlns="http://www.w3.org/2000/svg" xmlns:xlink="http://www.w3.org/1999/xlink" width="20" height="20" viewBox="0 0 20 20">
  <defs>
    <clipPath id="clip-airplane">
      <rect width="20" height="20"/>
    </clipPath>
  </defs>
  <g id="airplane" clip-path="url(#clip-airplane)">
    <rect width="20" height="20" fill="#fff"/>
    <path id="Path_8" data-name="Path 8" d="M35.979,19.288c1.135,0,3.11.963,3.11,2.124,0,1.195-1.975,2.124-3.11,2.124h-3.87l-3.336,5.838a1.065,1.065,0,0,1-.923.534H25.981a.533.533,0,0,1-.53-.535.52.52,0,0,1,.02-.144L27.1,23.536H23.688l-1.433,1.912a.532.532,0,0,1-.425.212H20.437a.473.473,0,0,1-.466-.48v-.014a.507.507,0,0,1,.018-.1l1.044-3.654-1.044-3.654a.48.48,0,0,1-.018-.13.466.466,0,0,1,.466-.465h1.393a.532.532,0,0,1,.425.212l1.434,1.912H27.1l-1.63-5.693a.532.532,0,0,1,.364-.659.5.5,0,0,1,.146-.021h1.869a1.061,1.061,0,0,1,.923.535l3.332,5.837Z" transform="matrix(0.848, -0.53, 0.53, 0.848, -25.325, 6.635)" fill="#caccd3"/>
  </g>
</svg>
