<svg xmlns="http://www.w3.org/2000/svg" xmlns:xlink="http://www.w3.org/1999/xlink" width="20" height="20" viewBox="0 0 20 20">
  <defs>
    <clipPath id="clip-bus">
      <rect width="20" height="20"/>
    </clipPath>
  </defs>
  <g id="bus" clip-path="url(#clip-bus)">
    
    <path id="Path_10" data-name="Path 10" d="M59.422,42.761V41.211c0-1.442-2.884-2.571-7.211-2.571S45,39.769,45,41.211v1.549a1.031,1.031,0,0,0-1.03,1.03v2.06A1.031,1.031,0,0,0,45,46.881v5.151a1.031,1.031,0,0,0,1.03,1.03v1.03a1.031,1.031,0,0,0,1.03,1.03h1.03a1.031,1.031,0,0,0,1.03-1.03v-1.03H55.3v1.03a1.031,1.031,0,0,0,1.03,1.03h1.03a1.031,1.031,0,0,0,1.03-1.03v-1.03a1.031,1.031,0,0,0,1.03-1.03V46.881a1.031,1.031,0,0,0,1.03-1.03v-2.06A1.031,1.031,0,0,0,59.422,42.761ZM49.64,40.7h5.151a.515.515,0,0,1,0,1.03H49.64a.515.515,0,1,1,0-1.03ZM47.58,51.513h-.008a1.03,1.03,0,0,1,.008-2.06,1.03,1.03,0,0,1,0,2.06Zm4.121-3.6h-3.61a1.031,1.031,0,0,1-1.03-1.03v-3.09a1.031,1.031,0,0,1,1.03-1.03H51.7Zm1.03,0V42.761h3.6a1.031,1.031,0,0,1,1.03,1.03v3.09a1.031,1.031,0,0,1-1.03,1.03Zm4.121,3.6h-.008a1.03,1.03,0,0,1,.008-2.06,1.03,1.03,0,1,1,0,2.06Z" transform="translate(-42.211 -36.881)" fill="#ff0000"/>
  </g>
</svg>
