<svg xmlns="http://www.w3.org/2000/svg" xmlns:xlink="http://www.w3.org/1999/xlink" width="20" height="20" viewBox="0 0 20 20">
  <defs>
    <clipPath id="clip-calender">
      <rect width="20" height="20"/>
    </clipPath>
  </defs>
  <g id="calender" clip-path="url(#clip-calender)">
    
    <path id="Path_11" data-name="Path 11" d="M5.444,1.589V2.678H9.8V1.589a1.089,1.089,0,1,1,2.178,0V2.678H13.61a1.633,1.633,0,0,1,1.633,1.633V5.944H0V4.311A1.633,1.633,0,0,1,1.633,2.678H3.266V1.589a1.089,1.089,0,0,1,2.178,0ZM0,7.033H15.243v9.255A1.634,1.634,0,0,1,13.61,17.92H1.633A1.633,1.633,0,0,1,0,16.287Zm2.178,3.811a.545.545,0,0,0,.544.544H3.811a.546.546,0,0,0,.544-.544V9.755a.546.546,0,0,0-.544-.544H2.722a.545.545,0,0,0-.544.544Zm4.355,0a.546.546,0,0,0,.544.544H8.166a.546.546,0,0,0,.544-.544V9.755a.546.546,0,0,0-.544-.544H7.077a.546.546,0,0,0-.544.544Zm4.9-1.633a.546.546,0,0,0-.544.544v1.089a.546.546,0,0,0,.544.544h1.089a.546.546,0,0,0,.544-.544V9.755a.546.546,0,0,0-.544-.544ZM2.178,15.2a.545.545,0,0,0,.544.544H3.811a.546.546,0,0,0,.544-.544V14.11a.546.546,0,0,0-.544-.544H2.722a.545.545,0,0,0-.544.544Zm4.9-1.633a.546.546,0,0,0-.544.544V15.2a.546.546,0,0,0,.544.544H8.166A.546.546,0,0,0,8.71,15.2V14.11a.546.546,0,0,0-.544-.544ZM10.888,15.2a.546.546,0,0,0,.544.544h1.089a.546.546,0,0,0,.544-.544V14.11a.546.546,0,0,0-.544-.544H11.432a.546.546,0,0,0-.544.544Z" transform="translate(2.379 0.79)" fill="#ff0000"/>
  </g>
</svg>
