<svg xmlns="http://www.w3.org/2000/svg" xmlns:xlink="http://www.w3.org/1999/xlink" width="20" height="20" viewBox="0 0 20 20">
  <defs>
    <clipPath id="clip-car">
      <rect width="20" height="20"/>
    </clipPath>
  </defs>
  <g id="car" clip-path="url(#clip-car)">
   
    <path id="Path_1" data-name="Path 1" d="M1.445,7.761,2.728,4.1a3.5,3.5,0,0,1,3.3-2.345h6.61a3.5,3.5,0,0,1,3.3,2.345l1.284,3.666a2.339,2.339,0,0,1,1.444,2.159v7a1.166,1.166,0,0,1-1.167,1.167H16.341a1.166,1.166,0,0,1-1.167-1.167V15.173H3.5v1.751a1.167,1.167,0,0,1-1.167,1.167H1.167A1.167,1.167,0,0,1,0,16.924v-7A2.336,2.336,0,0,1,1.445,7.761ZM3.98,7.586H14.7l-.952-2.721a1.168,1.168,0,0,0-1.1-.781H6.033a1.168,1.168,0,0,0-1.1.781L3.98,7.586ZM3.5,9.921a1.167,1.167,0,1,0,1.167,1.167A1.167,1.167,0,0,0,3.5,9.921Zm11.672,2.334a1.167,1.167,0,1,0-1.167-1.167A1.166,1.166,0,0,0,15.174,12.255Z" transform="translate(0.513 0.079)" fill="#ff0000"/>
  </g>
</svg>
