<svg xmlns="http://www.w3.org/2000/svg" xmlns:xlink="http://www.w3.org/1999/xlink" width="20" height="20" viewBox="0 0 20 20">
  <defs>
    <clipPath id="clip-meal">
      <rect width="20" height="20"/>
    </clipPath>
  </defs>
  <g id="meal" clip-path="url(#clip-meal)">
    
    <g id="Group_1" data-name="Group 1" transform="translate(0 3.276)">
      <path id="Path_2" data-name="Path 2" d="M22.613-1.719a3.967,3.967,0,0,1,3.941-3.93,3.965,3.965,0,0,1,4,4,4.026,4.026,0,0,1-4.016,3.965A3.987,3.987,0,0,1,22.613-1.719Z" transform="translate(-16.073 9.166)" fill="#ff0000"/>
      <path id="Path_3" data-name="Path 3" d="M140.041-40.238q0,3.234,0,6.469a.9.9,0,0,1-.243.763.623.623,0,0,1-.636.21.719.719,0,0,1-.541-.576,3.526,3.526,0,0,1-.03-.54c0-1.322-.01-2.643.005-3.965,0-.313-.093-.411-.4-.4a5.751,5.751,0,0,1-1.331-.04.83.83,0,0,1-.754-.819,36.712,36.712,0,0,1,.081-5.04,4.455,4.455,0,0,1,2.816-3.515.739.739,0,0,1,1,.532,2.619,2.619,0,0,1,.036.539Q140.043-43.431,140.041-40.238Z" transform="translate(-120.042 47.753)" fill="#ff0000"/>
      <path id="Path_4" data-name="Path 4" d="M-53.391-36.92c0-1.169-.008-2.338,0-3.507,0-.292-.08-.4-.39-.444a2.237,2.237,0,0,1-1.849-2.588c.248-1.211.537-2.413.8-3.621.061-.28.149-.542.491-.5.315.043.348.318.348.581,0,1.1,0,2.2,0,3.3,0,.169-.058.378.226.406s.315-.178.338-.37q.217-1.759.418-3.52c.024-.212.058-.408.313-.405s.34.176.366.418c.122,1.161.257,2.32.387,3.481.022.194.008.4.3.4.32-.009.245-.244.246-.423,0-1.03,0-2.06,0-3.089a2.032,2.032,0,0,1,.026-.415c.043-.2.157-.379.384-.375a.4.4,0,0,1,.4.356c.279,1.276.595,2.545.834,3.828a2.179,2.179,0,0,1-1.736,2.516c-.443.066-.491.246-.489.613.012,2.227.006,4.453.006,6.68a.884.884,0,0,1-.2.7c-.212.211-.439.363-.74.23a.722.722,0,0,1-.5-.7C-53.387-34.554-53.391-35.737-53.391-36.92Z" transform="translate(55.665 47.607)" fill="#ff0000"/>
      <path id="Path_5" data-name="Path 5" d="M11.757,43.02a2.507,2.507,0,0,0,1.407,1.071c.263.065.124.227.057.352a6.747,6.747,0,0,1-2.357,2.539,7.011,7.011,0,0,1-9.315-1.637.9.9,0,0,1-.192-.574c.008-1.044,0-2.087,0-3.131a.616.616,0,0,1,.561-.627c.25-.012.144.2.147.3a4.755,4.755,0,0,0,1.37,3.225,5.036,5.036,0,0,0,8.184-1.248C11.658,43.221,11.694,43.148,11.757,43.02Z" transform="translate(3.408 -33.598)" fill="#ff0000"/>
      <path id="Path_6" data-name="Path 6" d="M31.053-36.944a5.375,5.375,0,0,0-2.6-2.24,4.961,4.961,0,0,0-5.065.781c-.361.276-.358.281-.458-.164s-.189-.9-.3-1.342a.41.41,0,0,1,.218-.511,7.078,7.078,0,0,1,8.342.662c.116.106.233.2.176.386A7.755,7.755,0,0,0,31.053-36.944Z" transform="translate(-16.069 41.999)" fill="#ff0000"/>
    </g>
  </g>
</svg>
