<svg xmlns="http://www.w3.org/2000/svg" xmlns:xlink="http://www.w3.org/1999/xlink" width="20" height="20" viewBox="0 0 20 20">
  <defs>
    <clipPath id="clip-train">
      <rect width="20" height="20"/>
    </clipPath>
  </defs>
  <g id="train" clip-path="url(#clip-train)">
    
    <path id="Path_9" data-name="Path 9" d="M41.324,22.38H32.8a3.2,3.2,0,0,0-3.2,3.2V34.1a3.228,3.228,0,0,0,2.7,3.163L30.768,38.8a.368.368,0,0,0,.264.631h1.322a1.1,1.1,0,0,0,.759-.307L34.929,37.3h4.263l1.816,1.825a1.109,1.109,0,0,0,.759.315h1.3a.393.393,0,0,0,.281-.111.376.376,0,0,0,.009-.529l-1.535-1.535a3.228,3.228,0,0,0,2.7-3.163V25.578A3.2,3.2,0,0,0,41.324,22.38ZM37.061,35.17a1.6,1.6,0,1,1,1.595-1.595A1.6,1.6,0,0,1,37.061,35.17Zm5.329-6.4a1.066,1.066,0,0,1-1.066,1.066H32.8a1.066,1.066,0,0,1-1.066-1.066v-3.2A1.066,1.066,0,0,1,32.8,24.512h8.527a1.066,1.066,0,0,1,1.066,1.066Z" transform="translate(-26.811 -20.906)" fill="#ff0000"/>
  </g>
</svg>
